# Blender v2.79 (sub 0) OBJ File: 'cola machine.blend'
# www.blender.org
mtllib beer_button.mtl
o Beer_button_Cube.003
v 0.221686 0.278739 0.518651
v 0.221686 0.326098 0.518651
v 0.221686 0.278739 0.502793
v 0.221686 0.326098 0.502793
v 0.328745 0.278739 0.518651
v 0.328745 0.326098 0.518651
v 0.328745 0.278739 0.502793
v 0.328745 0.326098 0.502793
vt 0.996118 0.004762
vt 0.996118 0.092132
vt 0.881873 0.092132
vt 0.881873 0.004762
vt 0.004034 0.338005
vt 0.004034 0.005102
vt 0.120544 0.005102
vt 0.120544 0.338005
vt 0.994621 0.266500
vt 0.994621 0.338737
vt 0.880376 0.338737
vt 0.880376 0.266500
vt 0.873353 0.005313
vt 0.873353 0.335628
vt 0.126647 0.335628
vt 0.126647 0.005313
vt 0.880727 0.098346
vt 0.996373 0.098346
vt 0.996373 0.178577
vt 0.880727 0.178577
vt 0.994132 0.259543
vt 0.882348 0.259543
vt 0.882348 0.183777
vt 0.994132 0.183777
vn -1.0000 0.0000 0.0000
vn 0.0000 0.0000 -1.0000
vn 1.0000 0.0000 0.0000
vn 0.0000 0.0000 1.0000
vn 0.0000 -1.0000 0.0000
vn 0.0000 1.0000 0.0000
usemtl Beer_button_material
s off
f 1/1/1 2/2/1 4/3/1 3/4/1
f 3/5/2 4/6/2 8/7/2 7/8/2
f 7/9/3 8/10/3 6/11/3 5/12/3
f 5/13/4 6/14/4 2/15/4 1/16/4
f 3/17/5 7/18/5 5/19/5 1/20/5
f 8/21/6 4/22/6 2/23/6 6/24/6
