# Blender v2.79 (sub 0) OBJ File: 'cola machine.blend'
# www.blender.org
mtllib cola machine.mtl
o Cola_machine_Cube
v 0.321478 0.209828 0.499938
v 0.321478 0.236298 0.493590
v 0.329284 0.209828 0.499938
v 0.329284 0.236298 0.493590
v 0.232194 0.221876 0.510983
v 0.232194 0.230570 0.508898
v 0.232194 0.216184 0.487247
v 0.232194 0.224878 0.485163
v 0.304049 0.221876 0.510983
v 0.304049 0.230570 0.508898
v 0.304049 0.216184 0.487247
v 0.304049 0.224878 0.485163
v -0.340700 0.106552 0.516626
v -0.340700 0.916259 0.516626
v 0.177817 0.106552 0.516626
v 0.177817 0.916259 0.516626
v 0.210109 0.258536 0.511714
v 0.210109 0.467137 0.511714
v 0.343692 0.258536 0.511714
v 0.343692 0.467137 0.511714
v 0.210109 0.245101 0.511552
v 0.343692 0.245101 0.511552
v 0.210109 0.206512 0.520760
v 0.343692 0.206512 0.520760
v -0.168541 -0.610961 0.457494
v -0.168541 -0.486683 0.433676
v 0.168541 -0.610961 0.457494
v 0.168541 -0.486683 0.433676
v -0.168541 -0.577933 0.312032
v -0.168541 -0.470473 0.378851
v 0.168541 -0.577933 0.312032
v 0.168541 -0.470473 0.378851
v -0.168541 -0.386817 0.200625
v -0.168541 -0.368782 0.325873
v 0.168541 -0.386817 0.200625
v 0.168541 -0.368782 0.325873
v -0.500000 -0.966788 -0.500000
v 0.500000 -0.966788 -0.500000
v -0.371850 -0.966788 0.500000
v -0.500000 -0.966788 0.371850
v -0.462466 -0.966788 0.462466
v 0.500000 -0.966788 0.371850
v 0.371850 -0.966788 0.500000
v 0.462466 -0.966788 0.462466
v -0.500000 0.951378 -0.500000
v -0.459083 1.033212 -0.500000
v -0.488016 1.009243 -0.500000
v 0.459083 1.033212 -0.500000
v 0.500000 0.951378 -0.500000
v 0.488016 1.009243 -0.500000
v -0.459083 1.033212 0.363711
v -0.500000 0.951378 0.371850
v -0.488016 1.009243 0.369466
v -0.363711 1.033212 0.459083
v -0.371850 0.951378 0.500000
v -0.369466 1.009243 0.488016
v -0.431149 1.033212 0.431149
v -0.462466 0.951378 0.462466
v -0.453293 1.009243 0.453293
v 0.363711 1.033212 0.459083
v 0.371850 0.951378 0.500000
v 0.369466 1.009243 0.488016
v 0.459083 1.033212 0.363711
v 0.500000 0.951378 0.371850
v 0.488016 1.009243 0.369466
v 0.431149 1.033212 0.431149
v 0.462466 0.951378 0.462466
v 0.453293 1.009243 0.453293
v 0.168541 -0.455882 0.491806
v 0.176879 -0.434865 0.500000
v -0.176879 -0.434865 0.500000
v -0.168541 -0.455882 0.491806
v -0.168541 -0.593500 0.491806
v -0.177177 -0.605363 0.500000
v 0.176879 -0.606005 0.500000
v 0.168541 -0.593500 0.491806
v 0.177817 0.916259 0.500000
v -0.340700 0.916259 0.500000
v 0.177817 0.106552 0.500000
v -0.340700 0.106552 0.500000
v 0.210109 0.467137 0.500000
v 0.177817 0.171888 0.500000
v 0.343692 0.245219 0.500000
v 0.210109 0.258536 0.500000
v 0.210109 0.245219 0.500000
v 0.210109 0.206331 0.500000
v 0.343692 0.467137 0.500000
v 0.343692 0.258536 0.500000
v 0.343692 0.206331 0.500000
v 0.228573 0.220071 0.517525
v 0.228563 0.235160 0.513924
v 0.307670 0.220071 0.517525
v 0.307681 0.235160 0.513924
v 0.321478 0.214372 0.518884
v 0.329284 0.214372 0.518884
v 0.321478 0.240849 0.512567
v 0.321478 0.238969 0.513016
v 0.329284 0.240849 0.512567
v 0.328289 0.240849 0.512567
vt 0.870312 0.663665
vt 0.874416 0.658012
vt 0.874416 0.663665
vt 0.850742 0.665600
vt 0.858037 0.659902
vt 0.858037 0.667502
vt 0.870312 0.658012
vt 0.866207 0.665489
vt 0.866207 0.658012
vt 0.683831 0.337628
vt 0.686162 0.337628
vt 0.686162 0.347150
vt 0.866207 0.670173
vt 0.863244 0.661385
vt 0.865598 0.660674
vt 0.683909 0.685216
vt 0.681460 0.656571
vt 0.683909 0.656571
vt 0.862122 0.658723
vt 0.859166 0.667507
vt 0.859768 0.658012
vt 0.789659 0.659460
vt 0.792383 0.689552
vt 0.789659 0.688104
vt 0.773638 0.659455
vt 0.761282 0.688100
vt 0.761282 0.659455
vt 0.777102 0.688104
vt 0.777102 0.659460
vt 0.861520 0.668219
vt 0.858037 0.669661
vt 0.862122 0.659239
vt 0.777102 0.658012
vt 0.773638 0.688100
vt 0.141446 0.890224
vt 0.117379 0.399048
vt 0.141446 0.398971
vt 0.493063 0.890788
vt 0.492823 0.399300
vt 0.816887 0.658031
vt 0.823035 0.699503
vt 0.816887 0.699522
vt 0.685623 0.711264
vt 0.739524 0.658012
vt 0.739524 0.711264
vt 0.761282 0.658012
vt 0.759069 0.702409
vt 0.757464 0.696904
vt 0.770759 0.050904
vt 0.750014 0.185281
vt 0.750014 0.050904
vt 0.897990 0.051025
vt 0.879812 0.080164
vt 0.871268 0.054667
vt 0.702087 0.319014
vt 0.590051 0.247538
vt 0.741895 0.247538
vt 0.850003 0.051134
vt 0.830503 0.185511
vt 0.830503 0.051134
vt 0.902893 0.066094
vt 0.879081 0.105409
vt 0.925399 0.127016
vt 0.948771 0.165628
vt 0.926116 0.151800
vt 0.651633 0.185395
vt 0.707726 0.051022
vt 0.707718 0.185398
vt 0.823056 0.184418
vt 0.774896 0.050041
vt 0.823056 0.050041
vt 0.902893 0.132811
vt 0.861672 0.132081
vt 0.908311 0.100821
vt 0.948771 0.100132
vt 0.606577 0.185392
vt 0.651641 0.051019
vt 0.798880 0.427893
vt 0.803969 0.412352
vt 0.816256 0.405914
vt 0.593679 0.749536
vt 0.785183 0.759054
vt 0.585509 0.759054
vt 0.270275 0.039424
vt 0.488730 0.278511
vt 0.270275 0.277756
vt 0.760397 0.630354
vt 0.741895 0.627555
vt 0.246985 0.032056
vt 0.270275 0.270827
vt 0.246985 0.270311
vt 0.511980 0.278029
vt 0.488730 0.040179
vt 0.511980 0.039697
vt 0.571549 0.250337
vt 0.590051 0.627555
vt 0.571549 0.630354
vt 0.727349 0.185281
vt 0.785183 0.952338
vt 0.810703 0.749536
vt 0.810703 0.982148
vt 0.961072 0.412352
vt 0.949834 0.399064
vt 0.965106 0.407066
vt 0.514776 0.026979
vt 0.494335 0.017750
vt 0.517078 0.019478
vt 0.971433 0.426384
vt 0.966161 0.427893
vt 0.509815 0.032362
vt 0.488306 0.032808
vt 0.793609 0.426384
vt 0.799935 0.407066
vt 0.268122 0.278172
vt 0.815208 0.399064
vt 0.287236 0.026979
vt 0.307677 0.017750
vt 0.308275 0.025380
vt 0.948785 0.405914
vt 0.493736 0.025380
vt 0.793609 0.626756
vt 0.246577 0.277695
vt 0.028595 0.271199
vt 0.971433 0.626756
vt 0.028595 0.032944
vt 0.720628 0.185399
vt 0.943959 0.180418
vt 0.727349 0.050904
vt 0.723922 0.188604
vt 0.723922 0.047581
vt 0.720636 0.051023
vt 0.723922 0.188723
vt 0.899708 0.046803
vt 0.866610 0.051322
vt 0.917730 0.176825
vt 0.945757 0.184590
vt 0.913140 0.180121
vt 0.702279 0.460182
vt 0.596411 0.460182
vt 0.629859 0.352920
vt 0.516438 0.439792
vt 0.142559 0.911704
vt 0.491880 0.912270
vt 0.816887 0.699532
vt 0.810737 0.658012
vt 0.816887 0.658028
vt 0.804673 0.711264
vt 0.798529 0.658012
vt 0.804673 0.658012
vt 0.750416 0.711264
vt 0.739524 0.658012
vt 0.750416 0.658012
vt 0.810737 0.658012
vt 0.804673 0.711264
vt 0.804673 0.658012
vt 0.798529 0.711264
vt 0.792383 0.658012
vt 0.798529 0.658012
vt 0.843444 0.658012
vt 0.833298 0.662610
vt 0.833241 0.658014
vt 0.833241 0.666274
vt 0.823092 0.661669
vt 0.833241 0.658012
vt 0.501302 0.362568
vt 0.156445 0.398736
vt 0.156933 0.362568
vt 0.702279 0.620597
vt 0.736146 0.490293
vt 0.708872 0.490293
vt 0.708872 0.487654
vt 0.751613 0.702409
vt 0.751613 0.705124
vt 0.750416 0.711264
vt 0.843444 0.667502
vt 0.843444 0.659899
vt 0.843962 0.659765
vt 0.870312 0.658012
vt 0.850742 0.658012
vt 0.870312 0.665489
vt 0.683491 0.347150
vt 0.683491 0.337628
vt 0.863853 0.670884
vt 0.681460 0.685216
vt 0.792383 0.658012
vt 0.862122 0.670887
vt 0.866207 0.658012
vt 0.777102 0.689543
vt 0.117379 0.890301
vt 0.823035 0.658012
vt 0.685623 0.658012
vt 0.751613 0.705520
vt 0.759069 0.705520
vt 0.753215 0.665368
vt 0.750416 0.658012
vt 0.757464 0.665373
vt 0.761282 0.711264
vt 0.752143 0.702409
vt 0.753215 0.696909
vt 0.770759 0.185281
vt 0.702087 0.352920
vt 0.629798 0.319142
vt 0.850003 0.185511
vt 0.774896 0.184418
vt 0.870695 0.188297
vt 0.917168 0.045640
vt 0.606585 0.051016
vt 0.966161 0.626938
vt 0.798880 0.626939
vt 0.785183 0.982148
vt 0.585509 0.982148
vt 0.587902 0.752324
vt 0.777013 0.749536
vt 0.782790 0.752324
vt 0.760397 0.250337
vt 0.270275 0.032571
vt 0.984329 0.749536
vt 0.984329 0.982147
vt 0.792657 0.973417
vt 0.785183 0.779346
vt 0.792657 0.758267
vt 0.284934 0.019478
vt 0.028784 0.278581
vt 0.270449 0.032056
vt 0.723922 0.047581
vt 0.736146 0.479950
vt 0.736146 0.487654
vt 0.708872 0.479950
vt 0.702279 0.473126
vt 0.516431 0.400283
vt 0.516519 0.890887
vt 0.810737 0.699516
vt 0.798529 0.711264
vt 0.739524 0.711264
vt 0.810737 0.711264
vt 0.792383 0.711264
vt 0.843444 0.666271
vt 0.823035 0.666267
vt 0.501790 0.398736
vt 0.596411 0.620597
vt 0.708872 0.531619
vt 0.736146 0.531619
vt 0.850742 0.658012
vt 0.850742 0.665603
vn 0.0000 0.2332 0.9724
vn -1.0000 0.0000 0.0000
vn 0.0000 0.9724 -0.2332
vn 0.0000 -0.9724 0.2332
vn 1.0000 0.0000 0.0000
vn 0.0000 -0.7384 0.6743
vn -0.8539 0.1214 0.5061
vn 0.8539 0.1214 0.5061
vn 0.0000 0.9640 0.2661
vn 0.0000 0.0000 1.0000
vn -0.0000 0.2321 0.9727
vn 0.0000 -0.9590 -0.2835
vn 0.0000 -0.4620 -0.8869
vn 0.0000 0.9752 0.2214
vn 0.0000 -0.9898 0.1425
vn 0.0000 0.5036 0.8639
vn 0.0000 1.0000 0.0000
vn 0.0000 -0.0000 -1.0000
vn 0.3827 0.0000 0.9239
vn -0.9239 0.0000 0.3827
vn 0.9239 0.0000 0.3827
vn -0.3827 0.0000 0.9239
vn 0.0000 -0.8836 0.4682
vn 0.0000 -1.0000 0.0000
vn 0.2441 0.7701 0.5894
vn 0.3747 0.2028 0.9047
vn 0.5894 0.7701 0.2441
vn 0.9047 0.2028 0.3747
vn -0.5894 0.7701 0.2441
vn -0.9047 0.2028 0.3747
vn -0.2441 0.7701 0.5894
vn -0.3747 0.2028 0.9047
vn -0.0000 0.7701 0.6380
vn 0.0000 0.2028 0.9792
vn -0.6380 0.7701 -0.0000
vn -0.9792 0.2028 -0.0000
vn 0.9792 0.2028 0.0000
vn 0.6380 0.7701 0.0000
vn 0.0000 0.8912 -0.4535
vn 0.0000 -0.3632 0.9317
vn 0.0000 0.5481 0.8364
vn 0.6994 -0.0012 0.7148
vn -0.7009 0.0000 0.7132
vn 0.0000 -1.0000 0.0087
vn 0.0000 0.9999 0.0102
vn -0.0001 0.2323 0.9726
vn 0.0010 0.5678 0.8232
vn 0.6883 0.0000 0.7254
usemtl Cola_machine_material
s off
f 3/1/1 2/2/1 1/3/1
f 3/4/2 98/5/2 4/6/2
f 1/7/3 95/8/3 3/9/3
f 99/10/4 96/11/4 2/12/4
f 7/13/5 6/14/5 5/15/5
f 11/16/1 8/17/1 7/18/1
f 11/19/2 10/20/2 12/21/2
f 10/22/6 91/23/6 6/24/6
f 5/25/3 11/26/3 7/27/3
f 10/22/4 8/28/4 12/29/4
f 9/30/7 93/31/7 10/20/7
f 91/32/8 5/15/8 6/14/8
f 90/33/9 9/34/9 5/25/9
f 14/35/2 80/36/2 13/37/2
f 16/38/10 13/37/10 15/39/10
f 18/40/2 84/41/2 17/42/2
f 20/43/10 17/44/10 19/45/10
f 23/46/11 94/47/11 92/48/11
f 30/49/12 28/50/12 26/51/12
f 73/52/5 26/53/5 72/54/5
f 75/55/10 39/56/10 43/57/10
f 34/58/13 32/59/13 30/60/13
f 25/61/5 30/62/5 26/53/5
f 32/63/2 27/64/2 28/65/2
f 31/66/14 25/67/14 27/68/14
f 35/69/15 34/70/15 33/71/15
f 29/72/5 34/73/5 30/62/5
f 36/74/2 31/75/2 32/63/2
f 35/76/16 29/77/16 31/66/16
f 51/78/17 57/79/17 54/80/17
f 46/81/18 49/82/18 45/83/18
f 49/84/5 42/85/5 38/86/5
f 43/57/19 67/87/19 61/88/19
f 40/89/20 58/90/20 52/91/20
f 44/92/21 64/93/21 67/94/21
f 41/95/22 55/96/22 58/97/22
f 69/98/23 26/51/23 28/50/23
f 43/99/24 40/100/24 42/101/24
f 66/102/25 62/103/25 68/104/25
f 68/105/26 61/106/26 67/107/26
f 66/102/27 65/108/27 63/109/27
f 68/110/28 64/93/28 65/111/28
f 57/79/29 53/112/29 59/113/29
f 59/114/30 52/91/30 58/90/30
f 57/79/31 56/115/31 54/80/31
f 59/116/32 55/117/32 56/118/32
f 60/119/33 56/115/33 62/103/33
f 62/120/34 55/117/34 61/106/34
f 51/78/35 47/121/35 53/112/35
f 53/122/36 45/123/36 52/91/36
f 49/84/37 65/111/37 64/93/37
f 50/124/38 63/109/38 65/108/38
f 52/91/2 37/125/2 40/89/2
f 25/67/39 76/126/39 27/68/39
f 76/127/2 28/65/2 27/64/2
f 72/128/40 70/129/40 71/130/40
f 73/131/41 75/132/41 76/126/41
f 74/133/42 72/54/42 71/134/42
f 69/135/43 75/136/43 70/137/43
f 79/138/10 80/139/10 71/140/10
f 82/141/5 16/38/5 15/39/5
f 78/142/17 16/38/17 77/143/17
f 87/144/5 19/145/5 88/146/5
f 88/147/24 17/148/24 84/149/24
f 89/150/44 23/151/44 86/152/44
f 83/153/45 21/154/45 22/155/45
f 81/156/17 20/157/17 87/158/17
f 86/159/2 21/160/2 85/161/2
f 89/162/5 22/163/5 24/164/5
f 79/165/24 13/166/24 80/167/24
f 61/88/10 55/96/10 77/168/10
f 88/169/10 84/170/10 85/171/10
f 96/172/11 99/173/11 22/174/11
f 2/175/5 96/176/5 97/177/5
f 3/1/1 4/178/1 2/2/1
f 3/4/2 95/179/2 98/5/2
f 1/7/3 94/180/3 95/8/3
f 2/12/4 4/181/4 99/10/4
f 4/181/4 98/182/4 99/10/4
f 7/13/5 8/183/5 6/14/5
f 11/16/1 12/184/1 8/17/1
f 11/19/2 9/30/2 10/20/2
f 10/22/6 93/185/6 91/23/6
f 5/25/3 9/34/3 11/26/3
f 10/22/4 6/24/4 8/28/4
f 9/30/7 92/186/7 93/31/7
f 91/32/8 90/187/8 5/15/8
f 90/33/9 92/188/9 9/34/9
f 14/35/2 78/189/2 80/36/2
f 16/38/10 14/35/10 13/37/10
f 18/40/2 81/190/2 84/41/2
f 20/43/10 18/191/10 17/44/10
f 22/174/46 99/173/46 98/192/46
f 22/174/11 98/192/11 95/193/11
f 91/194/11 21/195/11 90/196/11
f 21/195/11 23/46/11 90/196/11
f 24/197/11 22/174/11 95/193/11
f 94/47/11 97/198/11 92/48/11
f 97/198/11 93/199/11 92/48/11
f 24/197/11 95/193/11 94/47/11
f 90/196/11 23/46/11 92/48/11
f 23/46/11 24/197/11 94/47/11
f 30/49/12 32/200/12 28/50/12
f 73/52/5 25/61/5 26/53/5
f 43/57/10 70/201/10 75/55/10
f 75/55/10 74/202/10 39/56/10
f 34/58/13 36/203/13 32/59/13
f 25/61/5 29/72/5 30/62/5
f 32/63/2 31/75/2 27/64/2
f 31/66/14 29/77/14 25/67/14
f 35/69/15 36/204/15 34/70/15
f 29/72/5 33/205/5 34/73/5
f 36/74/2 35/206/2 31/75/2
f 35/76/16 33/207/16 29/77/16
f 54/80/17 60/119/17 63/109/17
f 60/119/17 66/102/17 63/109/17
f 63/109/17 48/208/17 51/78/17
f 54/80/17 63/109/17 51/78/17
f 48/208/17 46/209/17 51/78/17
f 38/210/18 37/211/18 45/83/18
f 45/83/18 47/212/18 46/81/18
f 46/81/18 48/213/18 49/82/18
f 48/213/18 50/214/18 49/82/18
f 49/82/18 38/210/18 45/83/18
f 49/84/5 64/93/5 42/85/5
f 43/57/19 44/215/19 67/87/19
f 40/89/20 41/216/20 58/90/20
f 44/92/21 42/85/21 64/93/21
f 41/95/22 39/56/22 55/96/22
f 69/98/23 72/128/23 26/51/23
f 37/217/24 38/218/24 42/101/24
f 42/101/24 44/219/24 43/99/24
f 43/99/24 39/220/24 40/100/24
f 39/220/24 41/221/24 40/100/24
f 40/100/24 37/217/24 42/101/24
f 66/102/25 60/119/25 62/103/25
f 68/105/26 62/120/26 61/106/26
f 66/102/27 68/104/27 65/108/27
f 68/110/28 67/94/28 64/93/28
f 57/79/29 51/78/29 53/112/29
f 59/114/30 53/122/30 52/91/30
f 57/79/31 59/113/31 56/115/31
f 59/116/32 58/222/32 55/117/32
f 60/119/33 54/80/33 56/115/33
f 62/120/34 56/118/34 55/117/34
f 51/78/35 46/209/35 47/121/35
f 53/122/36 47/223/36 45/123/36
f 49/84/37 50/224/37 65/111/37
f 50/124/38 48/208/38 63/109/38
f 52/91/2 45/123/2 37/125/2
f 25/67/39 73/131/39 76/126/39
f 76/127/2 69/135/2 28/65/2
f 72/128/40 69/98/40 70/129/40
f 73/131/47 74/225/47 75/132/47
f 74/133/48 73/52/48 72/54/48
f 69/135/43 76/127/43 75/136/43
f 43/57/10 61/88/10 89/226/10
f 61/88/10 83/227/10 89/226/10
f 89/226/10 86/228/10 79/138/10
f 86/228/10 82/229/10 79/138/10
f 70/201/10 43/57/10 89/226/10
f 80/139/10 55/96/10 39/56/10
f 70/201/10 89/226/10 79/138/10
f 80/139/10 39/56/10 71/140/10
f 39/56/10 74/202/10 71/140/10
f 71/140/10 70/201/10 79/138/10
f 15/39/5 79/230/5 82/141/5
f 82/141/5 77/231/5 16/38/5
f 78/142/17 14/35/17 16/38/17
f 87/144/5 20/232/5 19/145/5
f 88/147/24 19/233/24 17/148/24
f 89/150/44 24/234/44 23/151/44
f 83/153/45 85/235/45 21/154/45
f 81/156/17 18/236/17 20/157/17
f 86/159/2 23/237/2 21/160/2
f 89/162/5 83/238/5 22/163/5
f 79/165/24 15/239/24 13/166/24
f 55/96/10 80/139/10 78/240/10
f 77/168/10 82/229/10 81/241/10
f 82/229/10 84/170/10 81/241/10
f 55/96/10 78/240/10 77/168/10
f 81/241/10 87/242/10 77/168/10
f 87/242/10 61/88/10 77/168/10
f 61/88/10 87/242/10 88/169/10
f 82/229/10 86/228/10 85/171/10
f 83/227/10 61/88/10 88/169/10
f 84/170/10 82/229/10 85/171/10
f 85/171/10 83/227/10 88/169/10
f 22/174/11 21/195/11 96/172/11
f 21/195/11 91/194/11 93/199/11
f 96/172/11 21/195/11 93/199/11
f 93/199/11 97/198/11 96/172/11
f 97/177/5 94/243/5 1/244/5
f 1/244/5 2/175/5 97/177/5
