# Blender v2.79 (sub 0) OBJ File: 'cola machine.blend'
# www.blender.org
mtllib cola.mtl
o Cola_Cylinder
v 0.000000 -0.106524 -0.049109
v 0.000000 0.049109 -0.049109
v 0.018793 -0.106524 -0.045371
v 0.018793 0.049109 -0.045371
v 0.034726 -0.106524 -0.034726
v 0.034726 0.049109 -0.034726
v 0.045371 -0.106524 -0.018793
v 0.045371 0.049109 -0.018793
v 0.049109 -0.106524 0.000000
v 0.049109 0.049109 0.000000
v 0.045371 -0.106524 0.018793
v 0.045371 0.049109 0.018793
v 0.034726 -0.106524 0.034726
v 0.034726 0.049109 0.034726
v 0.018793 -0.106524 0.045371
v 0.018793 0.049109 0.045371
v 0.000000 -0.106524 0.049109
v 0.000000 0.049109 0.049109
v -0.018793 -0.106524 0.045371
v -0.018793 0.049109 0.045371
v -0.034726 -0.106524 0.034726
v -0.034726 0.049109 0.034726
v -0.045371 -0.106524 0.018793
v -0.045371 0.049109 0.018793
v -0.049109 -0.106524 -0.000000
v -0.049109 0.049109 -0.000000
v -0.045371 -0.106524 -0.018793
v -0.045371 0.049109 -0.018793
v -0.034726 -0.106524 -0.034726
v -0.034726 0.049109 -0.034726
v -0.018793 -0.106524 -0.045371
v -0.018793 0.049109 -0.045371
v 0.015926 0.068408 -0.038449
v 0.000000 0.068408 -0.041617
v 0.029428 0.068408 -0.029428
v 0.038449 0.068408 -0.015926
v 0.041617 0.068408 0.000000
v 0.038449 0.068408 0.015926
v 0.029428 0.068408 0.029428
v 0.015926 0.068408 0.038449
v 0.000000 0.068408 0.041617
v -0.015926 0.068408 0.038449
v -0.029428 0.068408 0.029428
v -0.038449 0.068408 0.015926
v -0.041617 0.068408 -0.000000
v -0.038449 0.068408 -0.015926
v -0.029428 0.068408 -0.029428
v -0.015926 0.068408 -0.038449
v 0.014809 0.077093 -0.035751
v -0.000000 0.077093 -0.038697
v 0.027363 0.077093 -0.027363
v 0.035751 0.077093 -0.014809
v 0.038697 0.077093 0.000000
v 0.035751 0.077093 0.014809
v 0.027363 0.077093 0.027363
v 0.014809 0.077093 0.035751
v 0.000000 0.077093 0.038697
v -0.014809 0.077093 0.035751
v -0.027363 0.077093 0.027363
v -0.035751 0.077093 0.014809
v -0.038697 0.077093 -0.000000
v -0.035751 0.077093 -0.014809
v -0.027363 0.077093 -0.027363
v -0.014809 0.077093 -0.035751
v 0.015926 0.077093 -0.038449
v 0.000000 0.077093 -0.041617
v 0.029428 0.077093 -0.029428
v 0.038449 0.077093 -0.015926
v 0.041617 0.077093 0.000000
v 0.038449 0.077093 0.015926
v 0.029428 0.077093 0.029428
v 0.015926 0.077093 0.038449
v 0.000000 0.077093 0.041617
v -0.015926 0.077093 0.038449
v -0.029428 0.077093 0.029428
v -0.038449 0.077093 0.015926
v -0.041617 0.077093 -0.000000
v -0.038449 0.077093 -0.015926
v -0.029428 0.077093 -0.029428
v -0.015926 0.077093 -0.038449
v 0.014809 0.067321 -0.035751
v -0.000000 0.067321 -0.038697
v 0.027363 0.067321 -0.027363
v 0.035751 0.067321 -0.014809
v 0.038697 0.067321 0.000000
v 0.035751 0.067321 0.014809
v 0.027363 0.067321 0.027363
v 0.014809 0.067321 0.035751
v 0.000000 0.067321 0.038697
v -0.014809 0.067321 0.035751
v -0.027363 0.067321 0.027363
v -0.035751 0.067321 0.014809
v -0.038697 0.067321 -0.000000
v -0.035751 0.067321 -0.014809
v -0.027363 0.067321 -0.027363
v -0.014809 0.067321 -0.035751
v 0.013784 0.064249 -0.033276
v -0.000000 0.064249 -0.036018
v 0.025469 0.064249 -0.025469
v 0.033276 0.064249 -0.013784
v 0.036018 0.064249 0.000000
v 0.033276 0.064249 0.013784
v 0.025469 0.064249 0.025469
v 0.013784 0.064249 0.033276
v 0.000000 0.064249 0.036018
v -0.013784 0.064249 0.033276
v -0.025469 0.064249 0.025469
v -0.033276 0.064249 0.013784
v -0.036018 0.064249 -0.000000
v -0.033276 0.064249 -0.013784
v -0.025469 0.064249 -0.025469
v -0.013784 0.064249 -0.033276
v -0.000000 -0.123556 -0.040336
v 0.015436 -0.123556 -0.037265
v 0.028522 -0.123556 -0.028522
v 0.037265 -0.123556 -0.015436
v 0.040336 -0.123556 0.000000
v 0.037265 -0.123556 0.015436
v 0.028522 -0.123556 0.028522
v 0.015436 -0.123556 0.037265
v 0.000000 -0.123556 0.040336
v -0.015436 -0.123556 0.037265
v -0.028522 -0.123556 0.028522
v -0.037265 -0.123556 0.015436
v -0.040336 -0.123556 -0.000000
v -0.037265 -0.123556 -0.015436
v -0.028522 -0.123556 -0.028522
v -0.015436 -0.123556 -0.037265
v -0.000000 -0.126627 -0.040868
v 0.015640 -0.126627 -0.037757
v 0.028898 -0.126627 -0.028898
v 0.037757 -0.126627 -0.015640
v 0.040868 -0.126627 0.000000
v 0.037757 -0.126627 0.015640
v 0.028898 -0.126627 0.028898
v 0.015640 -0.126627 0.037757
v 0.000000 -0.126627 0.040868
v -0.015640 -0.126627 0.037757
v -0.028898 -0.126627 0.028898
v -0.037757 -0.126627 0.015640
v -0.040868 -0.126627 -0.000000
v -0.037757 -0.126627 -0.015640
v -0.028898 -0.126627 -0.028898
v -0.015640 -0.126627 -0.037757
v -0.000000 -0.128861 -0.038556
v 0.014755 -0.128861 -0.035621
v 0.027263 -0.128861 -0.027263
v 0.035621 -0.128861 -0.014755
v 0.038556 -0.128861 0.000000
v 0.035621 -0.128861 0.014755
v 0.027263 -0.128861 0.027263
v 0.014755 -0.128861 0.035621
v 0.000000 -0.128861 0.038556
v -0.014755 -0.128861 0.035621
v -0.027263 -0.128861 0.027263
v -0.035621 -0.128861 0.014755
v -0.038556 -0.128861 -0.000000
v -0.035621 -0.128861 -0.014755
v -0.027263 -0.128861 -0.027263
v -0.014755 -0.128861 -0.035621
v -0.000000 -0.128861 -0.040868
v 0.015640 -0.128861 -0.037757
v 0.028898 -0.128861 -0.028898
v 0.037757 -0.128861 -0.015640
v 0.040868 -0.128861 0.000000
v 0.037757 -0.128861 0.015640
v 0.028898 -0.128861 0.028898
v 0.015640 -0.128861 0.037757
v 0.000000 -0.128861 0.040868
v -0.015640 -0.128861 0.037757
v -0.028898 -0.128861 0.028898
v -0.037757 -0.128861 0.015640
v -0.040868 -0.128861 -0.000000
v -0.037757 -0.128861 -0.015640
v -0.028898 -0.128861 -0.028898
v -0.015640 -0.128861 -0.037757
v -0.000000 -0.121043 -0.038556
v 0.014755 -0.121043 -0.035621
v 0.027263 -0.121043 -0.027263
v 0.035621 -0.121043 -0.014755
v 0.038556 -0.121043 0.000000
v 0.035621 -0.121043 0.014755
v 0.027263 -0.121043 0.027263
v 0.014755 -0.121043 0.035621
v 0.000000 -0.121043 0.038556
v -0.014755 -0.121043 0.035621
v -0.027263 -0.121043 0.027263
v -0.035621 -0.121043 0.014755
v -0.038556 -0.121043 -0.000000
v -0.035621 -0.121043 -0.014755
v -0.027263 -0.121043 -0.027263
v -0.014755 -0.121043 -0.035621
vt 0.657198 0.077248
vt 0.657198 0.616461
vt 0.601858 0.615080
vt 0.601858 0.075867
vt 0.541958 0.615080
vt 0.541957 0.075867
vt 0.486617 0.616461
vt 0.486617 0.077248
vt 0.912491 0.076105
vt 0.912491 0.609251
vt 0.857151 0.605207
vt 0.857151 0.072061
vt 0.797250 0.605207
vt 0.797250 0.072061
vt 0.741910 0.609251
vt 0.741910 0.076105
vt 0.000000 0.636950
vt 0.000000 0.097737
vt 0.042356 0.100288
vt 0.042356 0.639501
vt 0.097696 0.101669
vt 0.097696 0.640882
vt 0.157597 0.101669
vt 0.157597 0.640882
vt 0.212937 0.100288
vt 0.212937 0.639501
vt 0.255293 0.097737
vt 0.255293 0.636950
vt 0.467986 0.075434
vt 0.486617 0.614250
vt 0.431269 0.615226
vt 0.412638 0.076410
vt 0.371413 0.617776
vt 0.352782 0.078959
vt 0.316161 0.621511
vt 0.297530 0.082695
vt 0.153027 0.033421
vt 0.199925 0.032251
vt 0.273924 0.625864
vt 0.255293 0.087048
vt 0.699554 0.079799
vt 0.699554 0.619012
vt 0.501855 0.019612
vt 0.547308 0.018478
vt 0.429061 0.683618
vt 0.475965 0.682791
vt 0.477004 0.712858
vt 0.430101 0.713685
vt 0.331515 0.688945
vt 0.295722 0.692633
vt 0.546527 0.683328
vt 0.499630 0.684498
vt 0.055368 0.032251
vt 0.102266 0.033421
vt 0.378337 0.685779
vt 0.644186 0.684498
vt 0.597288 0.683328
vt 0.801820 0.675371
vt 0.754923 0.678798
vt 0.235818 0.030089
vt 0.680079 0.686660
vt 0.899479 0.678798
vt 0.852581 0.675371
vt 0.699554 0.616722
vt 0.719029 0.685129
vt 0.915283 0.223280
vt 0.913471 0.186236
vt 0.943976 0.186236
vt 0.945787 0.223280
vt 0.852581 0.705121
vt 0.801820 0.705121
vt 0.379377 0.715846
vt 0.754923 0.708548
vt 0.332555 0.719011
vt 0.019475 0.030089
vt 0.019475 0.000000
vt 0.055368 0.002162
vt 0.296762 0.722700
vt 0.102266 0.003332
vt 0.644186 0.714587
vt 0.597288 0.713417
vt 0.680079 0.716749
vt 0.153027 0.003332
vt 0.546527 0.713417
vt 0.199925 0.002162
vt 0.499630 0.714587
vt 0.235818 0.000000
vt 0.899479 0.708548
vt 0.151197 0.726686
vt 0.103997 0.726686
vt 0.102217 0.716749
vt 0.152978 0.716749
vt 0.060390 0.746735
vt 0.055319 0.738311
vt 0.027015 0.783779
vt 0.019426 0.778150
vt 0.008953 0.832180
vt 0.000000 0.830204
vt 0.008953 0.884569
vt 0.000000 0.886546
vt 0.027015 0.932970
vt 0.019426 0.938599
vt 0.060390 0.970015
vt 0.055319 0.978439
vt 0.103997 0.990063
vt 0.102217 1.000000
vt 0.151197 0.990063
vt 0.152978 1.000000
vt 0.194804 0.970015
vt 0.199875 0.978439
vt 0.228179 0.932970
vt 0.235769 0.938599
vt 0.246242 0.884569
vt 0.255194 0.886546
vt 0.246242 0.832180
vt 0.255194 0.830204
vt 0.228179 0.783779
vt 0.235769 0.778150
vt 0.194804 0.746735
vt 0.199875 0.738311
vt 0.984101 0.048401
vt 0.986972 0.000000
vt 0.997558 0.005164
vt 0.994886 0.050214
vt 0.913471 0.446560
vt 0.915283 0.409516
vt 0.945787 0.409516
vt 0.943976 0.446560
vt 0.913471 0.260325
vt 0.943976 0.260325
vt 0.912491 0.547350
vt 0.912491 0.494961
vt 0.942995 0.494961
vt 0.942995 0.547350
vt 0.912491 0.308726
vt 0.942995 0.308726
vt 0.913471 0.595751
vt 0.943976 0.595751
vt 0.912491 0.361115
vt 0.942995 0.361115
vt 0.913471 0.037045
vt 0.915283 0.000000
vt 0.945787 0.000000
vt 0.943976 0.037045
vt 0.913471 0.409516
vt 0.943976 0.409516
vt 0.912491 0.085446
vt 0.942995 0.085446
vt 0.953941 0.048401
vt 0.956811 0.000000
vt 0.912491 0.137835
vt 0.942995 0.137835
vt 0.953941 0.100790
vt 0.984101 0.100790
vt 0.956811 0.149191
vt 0.986972 0.149191
vt 0.387691 0.976961
vt 0.343759 0.976961
vt 0.303170 0.958300
vt 0.272105 0.923820
vt 0.255293 0.878770
vt 0.255293 0.830007
vt 0.272105 0.784956
vt 0.303170 0.750476
vt 0.343759 0.731815
vt 0.387691 0.731815
vt 0.428280 0.750476
vt 0.459345 0.784956
vt 0.476157 0.830007
vt 0.476157 0.878769
vt 0.459345 0.923820
vt 0.428280 0.958300
vt 0.953028 0.087259
vt 0.953028 0.136021
vt 0.994886 0.098977
vt 0.953941 0.181072
vt 0.997558 0.144027
vt 0.432932 0.742748
vt 0.466307 0.779793
vt 0.298518 0.966028
vt 0.265143 0.928984
vt 0.389325 0.722700
vt 0.953028 0.496774
vt 0.953028 0.545537
vt 0.953941 0.451724
vt 0.953941 0.265488
vt 0.953028 0.310539
vt 0.953940 0.590588
vt 0.953028 0.359301
vt 0.466307 0.928984
vt 0.432932 0.966028
vt 0.953941 0.404352
vt 0.953941 0.042208
vt 0.757148 0.021782
vt 0.722359 0.027919
vt 0.720974 0.017234
vt 0.756222 0.011017
vt 0.103047 0.698271
vt 0.057594 0.697137
vt 0.596507 0.018478
vt 0.641960 0.019612
vt 0.356146 0.021385
vt 0.405308 0.019291
vt 0.802601 0.018461
vt 0.232488 0.695041
vt 0.197699 0.697137
vt 0.676749 0.021708
vt 0.851800 0.018461
vt 0.897253 0.021782
vt 0.152246 0.698271
vt 0.310765 0.024453
vt 0.022805 0.695041
vt 0.450767 0.018489
vt 0.276074 0.028028
vt 0.451321 0.007733
vt 0.405262 0.008545
vt 0.404994 0.000812
vt 0.451054 0.000000
vt 0.274321 0.017398
vt 0.309470 0.013776
vt 0.102722 0.709011
vt 0.056669 0.707861
vt 0.596832 0.007739
vt 0.642886 0.008888
vt 0.678134 0.011011
vt 0.152571 0.709011
vt 0.546983 0.007739
vt 0.198625 0.707861
vt 0.500930 0.008888
vt 0.233873 0.705738
vt 0.852125 0.007652
vt 0.898178 0.011017
vt 0.802276 0.007652
vt 0.355450 0.010667
vt 0.980296 0.371657
vt 0.978850 0.408585
vt 0.954448 0.408878
vt 0.955894 0.371949
vt 0.802276 0.000000
vt 0.852125 0.000000
vt 0.355183 0.002934
vt 0.756222 0.003365
vt 0.309202 0.006043
vt 0.021420 0.705738
vt 0.056669 0.715600
vt 0.021420 0.713477
vt 0.274054 0.009665
vt 0.102722 0.716749
vt 0.596832 0.000000
vt 0.642886 0.001149
vt 0.678134 0.003272
vt 0.152571 0.716749
vt 0.546983 0.000000
vt 0.198625 0.715600
vt 0.500930 0.001149
vt 0.486617 0.008354
vt 0.486349 0.000621
vt 0.898178 0.003365
vt 0.678881 0.744595
vt 0.635433 0.724619
vt 0.636843 0.716749
vt 0.682897 0.737923
vt 0.712134 0.781504
vt 0.718145 0.777046
vt 0.730131 0.829728
vt 0.737221 0.828163
vt 0.730131 0.881926
vt 0.737221 0.883492
vt 0.712134 0.930151
vt 0.718145 0.934609
vt 0.678881 0.967060
vt 0.682897 0.973732
vt 0.635433 0.987035
vt 0.636843 0.994905
vt 0.588405 0.987035
vt 0.586995 0.994905
vt 0.544958 0.967060
vt 0.540941 0.973732
vt 0.511704 0.930151
vt 0.505693 0.934609
vt 0.493707 0.881926
vt 0.486617 0.883492
vt 0.493707 0.829728
vt 0.486617 0.828163
vt 0.511704 0.781504
vt 0.505693 0.777046
vt 0.544958 0.744594
vt 0.540941 0.737923
vt 0.588405 0.724619
vt 0.586995 0.716749
vt 0.922395 0.736724
vt 0.955648 0.773634
vt 0.973645 0.821858
vt 0.973645 0.874056
vt 0.955648 0.922281
vt 0.922395 0.959190
vt 0.878947 0.979165
vt 0.831919 0.979165
vt 0.788472 0.959190
vt 0.755218 0.922281
vt 0.737221 0.874056
vt 0.737221 0.821858
vt 0.755218 0.773634
vt 0.788471 0.736724
vt 0.831919 0.716749
vt 0.878947 0.716749
vt 1.000000 0.716749
vt 0.998554 0.753678
vt 0.974152 0.753971
vt 0.975598 0.717042
vt 0.978342 0.456819
vt 0.978850 0.509014
vt 0.954448 0.509306
vt 0.953941 0.457111
vt 0.998047 0.801912
vt 0.973645 0.802204
vt 0.980296 0.557223
vt 0.955894 0.557516
vt 0.998554 0.854106
vt 0.974152 0.854399
vt 0.981125 0.149191
vt 0.979321 0.186100
vt 0.954917 0.186100
vt 0.956722 0.149191
vt 1.000000 0.902316
vt 0.975598 0.902609
vt 0.978344 0.234325
vt 0.953941 0.234325
vt 0.980929 0.557516
vt 0.978069 0.605740
vt 0.953941 0.605740
vt 0.956801 0.557516
vt 0.978344 0.286523
vt 0.953941 0.286523
vt 0.978069 0.657938
vt 0.953941 0.657938
vt 0.979321 0.334747
vt 0.954917 0.334747
vt 0.980929 0.706163
vt 0.956801 0.706163
vt 0.981125 0.371657
vt 0.956722 0.371657
vn 0.0000 -0.2292 -0.9734
vn 0.0000 0.1801 -0.9836
vn 0.3764 0.1801 -0.9088
vn 0.3725 -0.2292 -0.8993
vn 0.6955 0.1801 -0.6955
vn 0.6883 -0.2292 -0.6883
vn 0.9088 0.1801 -0.3764
vn 0.8993 -0.2292 -0.3725
vn 0.9836 0.1801 -0.0000
vn 0.9734 -0.2292 -0.0000
vn 0.9088 0.1801 0.3764
vn 0.8993 -0.2292 0.3725
vn 0.6955 0.1801 0.6955
vn 0.6883 -0.2292 0.6883
vn 0.3764 0.1801 0.9088
vn 0.3725 -0.2292 0.8993
vn 0.0000 0.1801 0.9836
vn 0.0000 -0.2292 0.9734
vn -0.3764 0.1801 0.9088
vn -0.3725 -0.2292 0.8993
vn -0.6955 0.1801 0.6955
vn -0.6883 -0.2292 0.6883
vn -0.9088 0.1801 0.3764
vn -0.8993 -0.2292 0.3725
vn -0.9836 0.1801 -0.0000
vn -0.9734 -0.2292 -0.0000
vn -0.9088 0.1801 -0.3764
vn -0.8993 -0.2292 -0.3725
vn -0.6955 0.1801 -0.6955
vn -0.6883 -0.2292 -0.6883
vn -0.3758 0.1884 0.9073
vn -0.6944 0.1884 0.6944
vn -0.3764 0.1801 -0.9088
vn -0.3725 -0.2292 -0.8993
vn 0.8213 -0.4579 -0.3402
vn 0.6286 -0.4579 -0.6286
vn -0.9821 0.1884 -0.0000
vn -0.9073 0.1884 0.3758
vn -0.9239 0.0000 0.3827
vn -1.0000 0.0000 0.0000
vn -0.6944 0.1884 -0.6944
vn -0.3758 0.1884 -0.9073
vn 0.6944 0.1884 -0.6944
vn 0.9073 0.1884 -0.3758
vn 0.3758 0.1884 0.9073
vn 0.0000 0.1884 0.9821
vn -0.9073 0.1884 -0.3758
vn 0.0000 0.1884 -0.9821
vn 0.3758 0.1884 -0.9073
vn 0.9073 0.1884 0.3758
vn 0.6944 0.1884 0.6944
vn 0.9821 0.1884 -0.0000
vn -0.3827 0.0000 -0.9239
vn -0.7071 0.0000 -0.7071
vn 1.0000 0.0000 0.0000
vn 0.9239 0.0000 0.3827
vn -0.9239 0.0000 -0.3827
vn 0.7071 0.0000 0.7071
vn 0.3827 0.0000 0.9239
vn 0.0000 0.0000 1.0000
vn 0.0000 0.0000 -1.0000
vn 0.3827 0.0000 -0.9239
vn -0.3827 0.0000 0.9239
vn 0.7071 0.0000 -0.7071
vn -0.7071 0.0000 0.7071
vn 0.9239 0.0000 -0.3827
vn 0.0000 1.0000 -0.0000
vn 0.7536 0.6573 0.0000
vn 0.6963 0.6573 -0.2884
vn -0.6963 0.6573 -0.2884
vn -0.7536 0.6573 -0.0000
vn 0.6963 0.6573 0.2884
vn -0.5329 0.6573 -0.5329
vn 0.5329 0.6573 0.5329
vn -0.2884 0.6573 -0.6963
vn 0.2884 0.6573 0.6963
vn -0.0000 0.6573 -0.7536
vn -0.2884 0.6573 0.6963
vn 0.0000 0.6573 0.7536
vn 0.2884 0.6573 -0.6963
vn -0.5329 0.6573 0.5329
vn 0.5329 0.6573 -0.5329
vn -0.6963 0.6573 0.2884
vn 0.6967 0.1709 0.6967
vn 0.3771 0.1709 0.9103
vn 0.3813 0.0849 0.9205
vn 0.7046 0.0849 0.7046
vn 0.0000 -0.4579 0.8890
vn 0.3402 -0.4579 0.8213
vn 0.3402 -0.4579 -0.8213
vn 0.0000 -0.4579 -0.8890
vn -0.8213 -0.4579 -0.3402
vn -0.8890 -0.4579 0.0000
vn 0.6286 -0.4579 0.6286
vn 0.8213 -0.4579 0.3402
vn -0.8213 -0.4579 0.3402
vn -0.6286 -0.4579 0.6286
vn -0.3402 -0.4579 -0.8213
vn 0.8890 -0.4579 -0.0000
vn -0.3402 -0.4579 0.8213
vn -0.6286 -0.4579 -0.6286
vn -0.9205 0.0849 0.3813
vn -0.9964 0.0849 0.0000
vn -0.6967 0.1709 -0.6967
vn -0.3771 0.1709 -0.9103
vn -0.3813 0.0849 -0.9205
vn -0.7046 0.0849 -0.7046
vn 0.0000 0.1709 0.9853
vn 0.0000 0.0849 0.9964
vn 0.0000 0.1709 -0.9853
vn 0.3771 0.1709 -0.9103
vn 0.3813 0.0849 -0.9205
vn 0.0000 0.0849 -0.9964
vn -0.3771 0.1709 0.9103
vn -0.3813 0.0849 0.9205
vn 0.6967 0.1709 -0.6967
vn 0.7046 0.0849 -0.7046
vn -0.6967 0.1709 0.6967
vn -0.7046 0.0849 0.7046
vn 0.9103 0.1709 -0.3771
vn 0.9205 0.0849 -0.3813
vn -0.9103 0.1709 0.3771
vn 0.9853 0.1709 -0.0000
vn 0.9964 0.0849 -0.0000
vn -0.9853 0.1709 0.0000
vn 0.9103 0.1709 0.3771
vn 0.9205 0.0849 0.3813
vn -0.9103 0.1709 -0.3771
vn -0.9205 0.0849 -0.3813
vn 0.0000 -1.0000 -0.0000
usemtl Cola_material
s 1
f 1/1/1 2/2/2 4/3/3 3/4/4
f 3/4/4 4/3/3 6/5/5 5/6/6
f 5/6/6 6/5/5 8/7/7 7/8/8
f 7/9/8 8/10/7 10/11/9 9/12/10
f 9/12/10 10/11/9 12/13/11 11/14/12
f 11/14/12 12/13/11 14/15/13 13/16/14
f 13/17/14 14/18/13 16/19/15 15/20/16
f 15/20/16 16/19/15 18/21/17 17/22/18
f 17/22/18 18/21/17 20/23/19 19/24/20
f 19/24/20 20/23/19 22/25/21 21/26/22
f 21/26/22 22/25/21 24/27/23 23/28/24
f 23/29/24 24/30/23 26/31/25 25/32/26
f 25/32/26 26/31/25 28/33/27 27/34/28
f 27/34/28 28/33/27 30/35/29 29/36/30
f 22/25/21 20/23/19 42/37/31 43/38/32
f 29/36/30 30/35/29 32/39/33 31/40/34
f 31/41/34 32/42/33 2/2/2 1/1/1
f 5/6/6 7/8/8 116/43/35 115/44/36
f 45/45/37 44/46/38 76/47/39 77/48/40
f 32/39/33 30/35/29 47/49/41 48/50/42
f 8/7/7 6/5/5 35/51/43 36/52/44
f 18/21/17 16/19/15 40/53/45 41/54/46
f 28/33/27 26/31/25 45/45/37 46/55/47
f 4/3/3 2/2/2 34/56/48 33/57/49
f 14/15/13 12/13/11 38/58/50 39/59/51
f 24/27/23 22/25/21 43/38/32 44/60/38
f 2/2/2 32/42/33 48/61/42 34/56/48
f 10/11/9 8/10/7 36/62/44 37/63/52
f 20/23/19 18/21/17 41/54/46 42/37/31
f 30/35/29 28/33/27 46/55/47 47/49/41
f 6/5/5 4/3/3 33/57/49 35/51/43
f 16/64/15 14/15/13 39/59/51 40/65/45
f 26/31/25 24/30/23 44/46/38 45/45/37
f 12/13/11 10/11/9 37/63/52 38/58/50
f 56/66/53 55/67/54 87/68/54 88/69/53
f 38/58/50 37/63/52 69/70/55 70/71/56
f 46/55/47 45/45/37 77/48/40 78/72/57
f 39/59/51 38/58/50 70/71/56 71/73/58
f 47/49/41 46/55/47 78/72/57 79/74/54
f 40/53/45 39/75/51 71/76/58 72/77/59
f 48/50/42 47/49/41 79/74/54 80/78/53
f 41/54/46 40/53/45 72/77/59 73/79/60
f 33/57/49 34/56/48 66/80/61 65/81/62
f 34/56/48 48/61/42 80/82/53 66/80/61
f 42/37/31 41/54/46 73/79/60 74/83/63
f 35/51/43 33/57/49 65/81/62 67/84/64
f 43/38/32 42/37/31 74/83/63 75/85/65
f 36/52/44 35/51/43 67/84/64 68/86/66
f 44/60/38 43/38/32 75/85/65 76/87/39
f 37/63/52 36/62/44 68/88/66 69/70/55
f 50/89/67 49/90/67 65/91/67 66/92/67
f 49/90/67 51/93/67 67/94/67 65/91/67
f 51/93/67 52/95/67 68/96/67 67/94/67
f 52/95/67 53/97/67 69/98/67 68/96/67
f 53/97/67 54/99/67 70/100/67 69/98/67
f 54/99/67 55/101/67 71/102/67 70/100/67
f 55/101/67 56/103/67 72/104/67 71/102/67
f 56/103/67 57/105/67 73/106/67 72/104/67
f 57/105/67 58/107/67 74/108/67 73/106/67
f 58/107/67 59/109/67 75/110/67 74/108/67
f 59/109/67 60/111/67 76/112/67 75/110/67
f 60/111/67 61/113/67 77/114/67 76/112/67
f 61/113/67 62/115/67 78/116/67 77/114/67
f 62/115/67 63/117/67 79/118/67 78/116/67
f 63/117/67 64/119/67 80/120/67 79/118/67
f 64/119/67 50/89/67 66/92/67 80/120/67
f 93/121/68 92/122/69 108/123/69 109/124/68
f 64/125/59 63/126/58 95/127/58 96/128/59
f 57/129/61 56/66/53 88/69/53 89/130/61
f 49/131/63 50/132/60 82/133/60 81/134/63
f 50/132/60 64/125/59 96/128/59 82/133/60
f 58/135/62 57/129/61 89/130/61 90/136/62
f 51/137/65 49/131/63 81/134/63 83/138/65
f 59/139/64 58/135/62 90/136/62 91/140/64
f 52/141/39 51/142/65 83/143/65 84/144/39
f 60/145/66 59/139/64 91/140/64 92/146/66
f 53/147/40 52/141/39 84/144/39 85/148/40
f 61/149/55 60/150/66 92/122/66 93/121/55
f 54/151/57 53/147/40 85/148/40 86/152/57
f 62/153/56 61/149/55 93/121/55 94/154/56
f 55/67/54 54/151/57 86/152/57 87/68/54
f 63/155/58 62/153/56 94/154/56 95/156/58
f 97/157/67 98/158/67 112/159/67 111/160/67 110/161/67 109/162/67 108/163/67 107/164/67 106/165/67 105/166/67 104/167/67 103/168/67 102/169/67 101/170/67 100/171/67 99/172/67
f 86/152/70 85/148/71 101/173/71 102/174/70
f 94/154/72 93/121/68 109/124/68 110/175/72
f 87/68/73 86/152/70 102/174/70 103/176/73
f 95/156/74 94/154/72 110/175/72 111/177/74
f 88/178/75 87/179/73 103/168/73 104/167/75
f 96/180/76 95/181/74 111/160/74 112/159/76
f 89/182/77 88/178/75 104/167/75 105/166/77
f 81/134/78 82/133/79 98/183/79 97/184/78
f 82/133/79 96/128/76 112/185/76 98/183/79
f 90/136/80 89/130/77 105/186/77 106/187/80
f 83/138/81 81/134/78 97/184/78 99/188/81
f 91/140/82 90/136/80 106/187/80 107/189/82
f 84/190/83 83/191/81 99/172/81 100/171/83
f 92/146/69 91/140/82 107/189/82 108/192/69
f 85/148/71 84/144/83 100/193/83 101/173/71
f 119/194/84 120/195/85 136/196/86 135/197/87
f 15/20/16 17/22/18 121/198/88 120/199/89
f 1/1/1 3/4/4 114/200/90 113/201/91
f 25/32/26 27/34/28 126/202/92 125/203/93
f 11/14/12 13/16/14 119/194/94 118/204/95
f 21/26/22 23/28/24 124/205/96 123/206/97
f 31/41/34 1/1/1 113/201/91 128/207/98
f 7/9/8 9/12/10 117/208/99 116/209/35
f 17/22/18 19/24/20 122/210/100 121/198/88
f 27/34/28 29/36/30 127/211/101 126/202/92
f 3/4/4 5/6/6 115/44/36 114/200/90
f 13/17/14 15/20/16 120/199/89 119/212/94
f 23/29/24 25/32/26 125/203/93 124/213/96
f 9/12/10 11/14/12 118/204/95 117/208/99
f 19/24/20 21/26/22 123/206/97 122/210/100
f 29/36/30 31/40/34 128/214/98 127/211/101
f 140/215/102 141/216/103 173/217/40 172/218/39
f 127/211/104 128/214/105 144/219/106 143/220/107
f 120/199/85 121/198/108 137/221/109 136/222/86
f 113/201/110 114/200/111 130/223/112 129/224/113
f 128/207/105 113/201/110 129/224/113 144/225/106
f 121/198/108 122/210/114 138/226/115 137/221/109
f 114/200/111 115/44/116 131/227/117 130/223/112
f 122/210/114 123/206/118 139/228/119 138/226/115
f 115/44/116 116/43/120 132/229/121 131/227/117
f 123/206/118 124/205/122 140/230/102 139/228/119
f 116/209/120 117/208/123 133/231/124 132/232/121
f 124/213/122 125/203/125 141/216/103 140/215/102
f 117/208/123 118/204/126 134/233/127 133/231/124
f 125/203/125 126/202/128 142/234/129 141/216/103
f 118/204/126 119/194/84 135/197/87 134/233/127
f 126/202/128 127/211/104 143/220/107 142/234/129
f 159/235/58 160/236/59 192/237/59 191/238/58
f 133/231/124 134/233/127 166/239/56 165/240/55
f 141/216/103 142/234/129 174/241/57 173/217/40
f 134/233/127 135/197/87 167/242/58 166/239/56
f 142/234/129 143/220/107 175/243/54 174/241/57
f 135/244/87 136/222/86 168/245/59 167/246/58
f 143/220/107 144/219/106 176/247/53 175/243/54
f 136/222/86 137/221/109 169/248/60 168/245/59
f 129/224/113 130/223/112 162/249/62 161/250/61
f 144/225/106 129/224/113 161/250/61 176/251/53
f 137/221/109 138/226/115 170/252/63 169/248/60
f 130/223/112 131/227/117 163/253/64 162/249/62
f 138/226/115 139/228/119 171/254/65 170/252/63
f 131/227/117 132/229/121 164/255/66 163/253/64
f 139/256/119 140/215/102 172/218/39 171/257/65
f 132/232/121 133/231/124 165/240/55 164/258/66
f 146/259/130 145/260/130 161/261/130 162/262/130
f 147/263/130 146/259/130 162/262/130 163/264/130
f 148/265/130 147/263/130 163/264/130 164/266/130
f 149/267/130 148/265/130 164/266/130 165/268/130
f 150/269/130 149/267/130 165/268/130 166/270/130
f 151/271/130 150/269/130 166/270/130 167/272/130
f 152/273/130 151/271/130 167/272/130 168/274/130
f 153/275/130 152/273/130 168/274/130 169/276/130
f 154/277/130 153/275/130 169/276/130 170/278/130
f 155/279/130 154/277/130 170/278/130 171/280/130
f 156/281/130 155/279/130 171/280/130 172/282/130
f 157/283/130 156/281/130 172/282/130 173/284/130
f 158/285/130 157/283/130 173/284/130 174/286/130
f 159/287/130 158/285/130 174/286/130 175/288/130
f 160/289/130 159/287/130 175/288/130 176/290/130
f 145/260/130 160/289/130 176/290/130 161/261/130
f 177/291/130 178/292/130 179/293/130 180/294/130 181/295/130 182/296/130 183/297/130 184/298/130 185/299/130 186/300/130 187/301/130 188/302/130 189/303/130 190/304/130 191/305/130 192/306/130
f 152/307/53 153/308/61 185/309/61 184/310/53
f 145/311/60 146/312/63 178/313/63 177/314/60
f 160/236/59 145/311/60 177/314/60 192/237/59
f 153/308/61 154/315/62 186/316/62 185/309/61
f 146/312/63 147/317/65 179/318/65 178/313/63
f 154/315/62 155/319/64 187/320/64 186/316/62
f 147/321/65 148/322/39 180/323/39 179/324/65
f 155/319/64 156/325/66 188/326/66 187/320/64
f 148/322/39 149/327/40 181/328/40 180/323/39
f 156/329/66 157/330/55 189/331/55 188/332/66
f 149/327/40 150/333/57 182/334/57 181/328/40
f 157/330/55 158/335/56 190/336/56 189/331/55
f 150/333/57 151/337/54 183/338/54 182/334/57
f 158/335/56 159/339/58 191/340/58 190/336/56
f 151/337/54 152/341/53 184/342/53 183/338/54
