# Blender v2.79 (sub 0) OBJ File: 'cola machine.blend'
# www.blender.org
mtllib cola_button.mtl
o Cola_button_Cube.001
v 0.221686 0.402378 0.518651
v 0.221686 0.449737 0.518651
v 0.221686 0.402378 0.502793
v 0.221686 0.449737 0.502793
v 0.328745 0.402378 0.518651
v 0.328745 0.449737 0.518651
v 0.328745 0.402378 0.502793
v 0.328745 0.449737 0.502793
vt 0.972373 0.926570
vt 0.972373 0.994715
vt 0.858129 0.994715
vt 0.858129 0.926570
vt 0.008600 0.989770
vt 0.008600 0.879174
vt 0.154296 0.879174
vt 0.154296 0.989770
vt 0.987471 0.727632
vt 0.987472 0.797196
vt 0.873227 0.797196
vt 0.873227 0.727632
vt 0.803150 0.720947
vt 0.803150 0.993636
vt 0.167086 0.993636
vt 0.167086 0.720947
vt 0.011868 0.740053
vt 0.141907 0.740052
vt 0.141907 0.854297
vt 0.011868 0.854297
vt 0.969507 0.909532
vt 0.864212 0.909532
vt 0.864212 0.811830
vt 0.969507 0.811830
vn -1.0000 0.0000 0.0000
vn 0.0000 0.0000 -1.0000
vn 1.0000 0.0000 0.0000
vn 0.0000 0.0000 1.0000
vn 0.0000 -1.0000 0.0000
vn 0.0000 1.0000 0.0000
usemtl Cola_button_material
s off
f 1/1/1 2/2/1 4/3/1 3/4/1
f 3/5/2 4/6/2 8/7/2 7/8/2
f 7/9/3 8/10/3 6/11/3 5/12/3
f 5/13/4 6/14/4 2/15/4 1/16/4
f 3/17/5 7/18/5 5/19/5 1/20/5
f 8/21/6 4/22/6 2/23/6 6/24/6
