# Blender v2.79 (sub 0) OBJ File: 'cola machine.blend'
# www.blender.org
mtllib water_button.mtl
o Water_button_Cube.002
v 0.221686 0.341065 0.518651
v 0.221686 0.388424 0.518651
v 0.221686 0.341065 0.502793
v 0.221686 0.388424 0.502793
v 0.328745 0.341065 0.518651
v 0.328745 0.388424 0.518651
v 0.328745 0.341065 0.502793
v 0.328745 0.388424 0.502793
vt 0.075336 0.439960
vt 0.075336 0.523012
vt 0.005814 0.523012
vt 0.005814 0.439960
vt 0.006264 0.705901
vt 0.006264 0.627444
vt 0.075111 0.627444
vt 0.075111 0.705901
vt 0.075016 0.537456
vt 0.075017 0.616311
vt 0.005483 0.616311
vt 0.005483 0.537456
vt 0.950693 0.354066
vt 0.950693 0.703578
vt 0.086824 0.703578
vt 0.086824 0.354066
vt 0.007451 0.351758
vt 0.076318 0.351758
vt 0.076318 0.427548
vt 0.007451 0.427548
vt 0.996647 0.705677
vt 0.956045 0.705677
vt 0.956045 0.351474
vt 0.996647 0.351474
vn -1.0000 0.0000 0.0000
vn 0.0000 0.0000 -1.0000
vn 1.0000 0.0000 0.0000
vn 0.0000 0.0000 1.0000
vn 0.0000 -1.0000 0.0000
vn 0.0000 1.0000 0.0000
usemtl Water_button_material
s off
f 1/1/1 2/2/1 4/3/1 3/4/1
f 3/5/2 4/6/2 8/7/2 7/8/2
f 7/9/3 8/10/3 6/11/3 5/12/3
f 5/13/4 6/14/4 2/15/4 1/16/4
f 3/17/5 7/18/5 5/19/5 1/20/5
f 8/21/6 4/22/6 2/23/6 6/24/6
